<svg width="1240" height="1240" viewBox="0 0 1240 1240" fill="none" xmlns="http://www.w3.org/2000/svg">
<g clip-path="url(#clip0_326_388)">
<g style="mix-blend-mode:multiply">
<path d="M195.882 1043.53H195.995C186.596 1033.93 178.383 1024.7 171.694 1016.52C149.904 989.904 137.88 968.34 136.695 966.195C135.509 968.34 123.486 989.904 101.696 1016.52C95.0068 1024.7 86.7652 1033.96 77.3945 1043.5H77.5074C136.582 1061.25 195.346 1043.73 195.91 1043.53H195.882Z" fill="#F0993B" fill-opacity="0.1"/>
<path d="M136.696 1239.55C137.881 1237.4 149.905 1215.84 171.694 1189.22C178.384 1181.04 186.625 1171.78 195.996 1162.24H195.883C165.287 1153.04 134.72 1153.52 114.483 1155.55C92.5239 1157.75 77.6212 1162.16 77.4801 1162.21H77.3672C86.766 1171.81 94.9795 1181.04 101.669 1189.22C123.458 1215.84 135.482 1237.4 136.667 1239.55H136.696Z" fill="#F0993B" fill-opacity="0.1"/>
<path d="M206.016 1152.42C207.145 1151.35 208.302 1150.27 209.459 1149.2C211.915 1146.91 214.455 1144.68 217.052 1142.4C218.971 1140.73 220.918 1139.04 222.922 1137.4C225.35 1135.37 227.833 1133.37 230.374 1131.36C232.547 1129.64 234.777 1127.95 237.035 1126.28C239.829 1124.19 242.68 1122.16 245.587 1120.13C247.704 1118.66 249.849 1117.22 252.022 1115.78C255.211 1113.69 258.457 1111.66 261.788 1109.66C263.905 1108.39 266.05 1107.12 268.251 1105.88C270.001 1104.89 271.638 1103.82 273.416 1102.86C271.695 1101.93 270.086 1100.88 268.392 1099.92C266.106 1098.62 263.877 1097.32 261.647 1095.97C258.429 1094.02 255.268 1092.05 252.163 1090.01C249.877 1088.52 247.647 1086.99 245.417 1085.47C242.623 1083.52 239.857 1081.55 237.176 1079.54C234.805 1077.77 232.491 1075.99 230.204 1074.21C227.777 1072.29 225.406 1070.37 223.063 1068.45C220.947 1066.7 218.886 1064.92 216.854 1063.15C214.37 1060.97 211.971 1058.83 209.6 1056.65C208.33 1055.47 207.088 1054.31 205.846 1053.13C202.685 1050.13 199.637 1047.17 196.73 1044.21C196.73 1044.21 196.73 1044.21 196.701 1044.18C196.504 1043.98 196.306 1043.78 196.109 1043.59V1043.7C196.024 1043.84 191.621 1058.74 189.419 1080.7C187.387 1100.97 186.907 1131.5 196.081 1162.1V1162.21C199.298 1158.97 202.6 1155.75 206.072 1152.45L206.016 1152.42Z" fill="#F0993B" fill-opacity="0.1"/>
<path d="M77.3095 1162.19V1162.08C77.3942 1161.93 81.7972 1147.03 83.9988 1125.07C86.0309 1104.81 86.5108 1074.27 77.3377 1043.68V1043.56C77.1119 1043.76 76.9143 1043.96 76.7168 1044.16C76.7168 1044.16 76.7168 1044.16 76.6885 1044.18C73.7532 1047.15 70.7049 1050.11 67.5437 1053.13C66.3018 1054.29 65.0882 1055.44 63.818 1056.6C61.4471 1058.8 58.9916 1060.98 56.4796 1063.18C54.4756 1064.93 52.4434 1066.68 50.3548 1068.4C48.0121 1070.38 45.5848 1072.29 43.1293 1074.24C40.8713 1076.02 38.5851 1077.77 36.2142 1079.52C33.5046 1081.55 30.7103 1083.53 27.8879 1085.5C25.7146 1087.03 23.4848 1088.52 21.2268 1089.99C18.0939 1092.05 14.9045 1094.03 11.6586 1096C9.45707 1097.33 7.25554 1098.63 4.99755 1099.9C3.27584 1100.86 1.66703 1101.93 -0.0546875 1102.86C1.72347 1103.82 3.38874 1104.89 5.13868 1105.91C7.28376 1107.12 9.40062 1108.37 11.5175 1109.64C14.848 1111.67 18.1503 1113.7 21.3397 1115.82C23.4848 1117.23 25.6017 1118.67 27.6903 1120.11C30.6257 1122.14 33.5046 1124.2 36.3271 1126.32C38.5568 1127.98 40.7301 1129.65 42.9035 1131.34C45.4719 1133.37 47.9839 1135.38 50.4395 1137.44C52.387 1139.07 54.3063 1140.71 56.2256 1142.35C58.8505 1144.63 61.4189 1146.92 63.9027 1149.21C65.0599 1150.25 66.1607 1151.32 67.2897 1152.37C70.7613 1155.67 74.0919 1158.91 77.2813 1162.16L77.3095 1162.19Z" fill="#F0993B" fill-opacity="0.1"/>
<path d="M483.775 1070.77C483.917 1068.31 484.227 1065.94 484.396 1063.51C484.594 1060.77 484.848 1058.01 485.13 1055.21C485.582 1050.47 486.118 1045.79 486.711 1041.13C487.106 1038.17 487.529 1035.2 487.981 1032.21C488.658 1027.72 489.42 1023.29 490.239 1018.89C490.775 1016.04 491.368 1013.22 491.961 1010.37C492.949 1005.77 493.993 1001.22 495.122 996.762C495.743 994.25 496.42 991.738 497.126 989.254C497.775 986.912 498.311 984.513 498.989 982.227C496.618 982.932 494.134 983.497 491.735 984.146C489.336 984.795 486.965 985.444 484.566 986.037C479.937 987.222 475.252 988.295 470.51 989.311C467.8 989.875 465.091 990.44 462.381 990.948C457.837 991.795 453.264 992.585 448.664 993.29C445.813 993.714 442.962 994.137 440.14 994.504C435.398 995.125 430.628 995.661 425.83 996.113C423.12 996.367 420.411 996.621 417.729 996.818C415.274 997.016 412.875 997.298 410.419 997.468C399.92 998.089 389.251 998.286 378.469 998.173C378.779 998.766 388.009 1015.62 405.254 1036.7C421.37 1056.37 447.93 1083.81 483.042 1102.74C482.957 1091.96 483.126 1081.27 483.747 1070.79L483.775 1070.77Z" fill="#F0993B" fill-opacity="0.1"/>
<path d="M619.988 966.172C618.802 968.317 606.779 989.88 584.989 1016.5C578.3 1024.68 570.058 1033.94 560.688 1043.48H560.8C619.875 1061.23 678.639 1043.7 679.203 1043.51H679.316C669.946 1033.91 661.704 1024.68 655.015 1016.5C633.225 989.88 621.201 968.317 620.016 966.172H619.988Z" fill="#F0993B" fill-opacity="0.1"/>
<path d="M597.803 1155.53C575.844 1157.73 560.942 1162.13 560.8 1162.19H560.688C570.058 1171.78 578.3 1181.01 584.989 1189.2C606.779 1215.81 618.802 1237.38 619.988 1239.52C621.173 1237.38 633.197 1215.81 654.987 1189.2C661.676 1181.01 669.917 1171.76 679.288 1162.22H679.175C648.608 1153.02 618.012 1153.5 597.775 1155.53H597.803Z" fill="#F0993B" fill-opacity="0.1"/>
<path d="M560.63 1162.19V1162.08C560.714 1161.93 565.118 1147.03 567.319 1125.07C569.351 1104.81 569.831 1074.27 560.658 1043.68V1043.56C560.432 1043.76 560.235 1043.96 560.037 1044.16C560.037 1044.16 560.037 1044.16 560.009 1044.18C557.073 1047.15 554.053 1050.11 550.864 1053.1C549.622 1054.26 548.408 1055.44 547.138 1056.6C544.767 1058.78 542.34 1060.95 539.828 1063.12C537.796 1064.87 535.764 1066.62 533.647 1068.37C531.304 1070.32 528.905 1072.24 526.478 1074.19C524.192 1075.96 521.877 1077.74 519.535 1079.49C516.825 1081.52 514.059 1083.5 511.236 1085.45C509.035 1086.97 506.805 1088.5 504.547 1089.96C501.442 1092.02 498.253 1094 495.007 1095.97C492.806 1097.3 490.576 1098.6 488.318 1099.87C486.624 1100.83 485.016 1101.9 483.266 1102.83C485.044 1103.79 486.709 1104.87 488.459 1105.85C490.604 1107.07 492.749 1108.34 494.838 1109.61C498.168 1111.61 501.442 1113.67 504.66 1115.79C506.805 1117.2 508.922 1118.64 511.039 1120.11C513.974 1122.14 516.825 1124.2 519.619 1126.29C521.849 1127.95 524.05 1129.65 526.224 1131.34C528.792 1133.34 531.276 1135.38 533.732 1137.41C535.707 1139.04 537.655 1140.71 539.546 1142.38C542.171 1144.66 544.711 1146.92 547.167 1149.21C548.324 1150.28 549.453 1151.35 550.61 1152.42C554.082 1155.7 557.384 1158.94 560.573 1162.16L560.63 1162.19Z" fill="#F0993B" fill-opacity="0.1"/>
<path d="M751.658 1099.92C749.372 1098.62 747.142 1097.33 744.912 1095.97C741.695 1094.02 738.534 1092.05 735.429 1090.02C733.143 1088.52 730.913 1087 728.711 1085.47C725.889 1083.52 723.151 1081.55 720.441 1079.52C718.071 1077.77 715.756 1075.96 713.47 1074.18C711.043 1072.26 708.672 1070.34 706.329 1068.4C704.24 1066.65 702.18 1064.9 700.148 1063.12C697.664 1060.95 695.237 1058.8 692.866 1056.6C691.596 1055.44 690.382 1054.26 689.14 1053.1C685.753 1049.88 682.479 1046.69 679.374 1043.53V1043.64C679.29 1043.79 674.887 1058.69 672.685 1080.65C670.653 1100.91 670.173 1131.45 679.346 1162.04V1162.16C682.564 1158.91 685.894 1155.67 689.366 1152.36C690.495 1151.29 691.624 1150.25 692.753 1149.17C695.237 1146.89 697.749 1144.63 700.374 1142.37C702.293 1140.71 704.24 1139.04 706.216 1137.38C708.644 1135.34 711.156 1133.34 713.696 1131.34C715.869 1129.61 718.099 1127.92 720.357 1126.26C723.151 1124.17 726.002 1122.14 728.937 1120.1C731.054 1118.64 733.171 1117.2 735.344 1115.76C738.534 1113.67 741.779 1111.64 745.11 1109.63C747.227 1108.36 749.372 1107.09 751.573 1105.85C753.323 1104.86 754.96 1103.79 756.739 1102.83C755.017 1101.9 753.408 1100.85 751.715 1099.89L751.658 1099.92Z" fill="#F0993B" fill-opacity="0.1"/>
<path d="M740.958 982.203C741.833 985.11 750.244 1015 754.506 1057.56C756.03 1072.77 756.764 1087.85 756.905 1102.75C792.017 1083.81 818.604 1056.4 834.692 1036.7C851.938 1015.62 861.167 998.771 861.478 998.178C846.575 998.037 831.503 997.275 816.29 995.751C773.247 991.461 743.47 982.937 740.93 982.203H740.958Z" fill="#F0993B" fill-opacity="0.1"/>
<path d="M1081.1 1155.53C1059.14 1157.73 1044.23 1162.13 1044.09 1162.19H1043.98C1053.38 1171.78 1061.59 1181.01 1068.28 1189.2C1090.07 1215.81 1102.1 1237.38 1103.28 1239.52C1104.47 1237.38 1116.49 1215.81 1138.28 1189.2C1144.97 1181.01 1153.21 1171.76 1162.58 1162.22H1162.47C1131.87 1153.02 1101.33 1153.5 1081.07 1155.53H1081.1Z" fill="#F0993B" fill-opacity="0.1"/>
<path d="M1043.95 1162.19V1162.08C1044.04 1161.93 1048.44 1147.03 1050.64 1125.07C1052.67 1104.81 1053.15 1074.27 1043.98 1043.68V1043.56C1043.76 1043.76 1043.59 1043.93 1043.39 1044.13C1043.36 1044.16 1043.33 1044.18 1043.3 1044.21C1040.4 1047.15 1037.38 1050.11 1034.22 1053.1C1032.97 1054.29 1031.7 1055.47 1030.43 1056.66C1028.06 1058.83 1025.66 1060.98 1023.18 1063.15C1021.15 1064.93 1019.09 1066.68 1017 1068.43C1014.66 1070.38 1012.28 1072.29 1009.86 1074.21C1007.57 1076.02 1005.26 1077.8 1002.89 1079.55C1000.18 1081.55 997.439 1083.53 994.616 1085.5C992.415 1087.03 990.185 1088.55 987.899 1090.05C984.794 1092.08 981.633 1094.08 978.387 1096.03C976.185 1097.36 973.927 1098.68 971.669 1099.95C969.976 1100.91 968.367 1101.96 966.617 1102.92C968.395 1103.88 970.032 1104.95 971.782 1105.94C973.956 1107.18 976.073 1108.42 978.189 1109.69C981.52 1111.7 984.766 1113.73 987.983 1115.84C990.157 1117.26 992.274 1118.72 994.39 1120.16C997.298 1122.2 1000.18 1124.23 1002.97 1126.32C1005.23 1128.01 1007.43 1129.7 1009.63 1131.4C1012.17 1133.4 1014.66 1135.4 1017.11 1137.44C1019.09 1139.1 1021.03 1140.74 1022.95 1142.43C1025.55 1144.72 1028.09 1146.95 1030.55 1149.23C1031.7 1150.31 1032.86 1151.38 1033.99 1152.48C1037.46 1155.75 1040.76 1159 1043.92 1162.22L1043.95 1162.19Z" fill="#F0993B" fill-opacity="0.1"/>
<path d="M1234.95 1099.93C1232.69 1098.66 1230.46 1097.33 1228.23 1096C1224.99 1094.06 1221.83 1092.05 1218.72 1090.02C1216.46 1088.52 1214.23 1087.03 1212.03 1085.48C1209.21 1083.5 1206.44 1081.55 1203.76 1079.52C1201.42 1077.77 1199.1 1075.99 1196.82 1074.21C1194.36 1072.29 1191.99 1070.38 1189.65 1068.4C1187.56 1066.65 1185.5 1064.9 1183.5 1063.15C1181.01 1060.98 1178.59 1058.8 1176.19 1056.63C1174.94 1055.47 1173.7 1054.32 1172.49 1053.16C1169.07 1049.94 1165.83 1046.75 1162.69 1043.56V1043.68C1162.61 1043.82 1158.21 1058.72 1156.01 1080.68C1153.97 1100.94 1153.49 1131.48 1162.67 1162.08V1162.19C1165.88 1158.94 1169.24 1155.67 1172.71 1152.37C1173.82 1151.32 1174.92 1150.28 1176.05 1149.23C1178.53 1146.95 1181.07 1144.66 1183.69 1142.38C1185.61 1140.71 1187.53 1139.04 1189.51 1137.41C1191.96 1135.38 1194.45 1133.34 1197.02 1131.34C1199.19 1129.65 1201.39 1127.95 1203.62 1126.29C1206.41 1124.2 1209.29 1122.14 1212.2 1120.11C1214.32 1118.64 1216.43 1117.2 1218.61 1115.79C1221.8 1113.67 1225.07 1111.64 1228.4 1109.64C1230.52 1108.37 1232.66 1107.1 1234.84 1105.88C1236.59 1104.89 1238.22 1103.82 1240 1102.86C1238.28 1101.93 1236.67 1100.89 1234.95 1099.9V1099.93Z" fill="#F0993B" fill-opacity="0.1"/>
<path d="M1103.31 966.172C1102.12 968.317 1090.1 989.88 1068.31 1016.5C1061.62 1024.68 1053.38 1033.94 1044.01 1043.48H1044.12C1103.2 1061.23 1161.93 1043.7 1162.52 1043.51H1162.64C1153.24 1033.91 1145.02 1024.68 1138.34 1016.5C1116.55 989.88 1104.52 968.317 1103.34 966.172H1103.31Z" fill="#F0993B" fill-opacity="0.1"/>
<path d="M242.114 829.114C242.256 826.659 242.566 824.288 242.735 821.832C242.961 819.095 243.187 816.357 243.441 813.619C243.893 808.849 244.429 804.136 245.05 799.451C245.417 796.544 245.84 793.636 246.292 790.701C246.997 786.157 247.759 781.641 248.578 777.182C249.086 774.444 249.65 771.678 250.243 768.912C251.231 764.227 252.304 759.57 253.489 754.998C254.11 752.57 254.759 750.171 255.408 747.744C256.057 745.373 256.622 742.918 257.328 740.547C254.985 741.252 252.558 741.789 250.187 742.438C247.731 743.115 245.304 743.764 242.848 744.385C238.276 745.543 233.675 746.615 229.018 747.603C226.252 748.196 223.458 748.76 220.692 749.296C216.232 750.143 211.716 750.905 207.172 751.611C204.237 752.062 201.33 752.486 198.451 752.853C193.765 753.473 189.052 753.982 184.31 754.433C181.544 754.687 178.778 754.941 176.04 755.139C173.613 755.336 171.242 755.619 168.786 755.76C158.287 756.381 147.618 756.578 136.836 756.465C137.146 757.058 146.376 773.908 163.621 794.991C179.738 814.664 206.297 842.097 241.409 861.036C241.324 850.254 241.493 839.557 242.114 829.086V829.114Z" fill="#F0993B" fill-opacity="0.1"/>
<path d="M378.356 997.89C379.541 995.745 391.565 974.182 413.355 947.566C420.044 939.381 428.286 930.124 437.656 920.584H437.543C406.948 911.383 376.38 911.863 356.143 913.895C334.184 916.096 319.281 920.499 319.14 920.556H319.027C328.398 930.152 336.64 939.381 343.329 947.566C365.118 974.182 377.142 995.745 378.328 997.89H378.356Z" fill="#F0993B" fill-opacity="0.1"/>
<path d="M318.971 920.532V920.419C319.056 920.278 323.459 905.376 325.66 883.418C327.692 863.153 328.172 832.614 318.999 802.019V801.906C315.781 805.124 312.479 808.37 309.008 811.644C307.879 812.716 306.721 813.789 305.564 814.861C303.109 817.147 300.568 819.377 297.972 821.663C296.052 823.328 294.105 824.994 292.129 826.659C289.702 828.691 287.218 830.695 284.678 832.699C282.504 834.42 280.275 836.114 278.017 837.807C275.222 839.896 272.372 841.928 269.465 843.96C267.348 845.428 265.231 846.867 263.058 848.307C259.868 850.395 256.622 852.456 253.292 854.46C251.175 855.73 249.03 857 246.857 858.242C245.107 859.229 243.47 860.302 241.691 861.262C243.441 862.193 245.05 863.266 246.772 864.225C249.002 865.495 251.231 866.794 253.405 868.12C256.651 870.096 259.84 872.071 263.001 874.132C265.231 875.6 267.432 877.095 269.606 878.619C272.456 880.595 275.222 882.599 277.96 884.631C280.303 886.381 282.589 888.131 284.847 889.909C287.303 891.857 289.73 893.804 292.073 895.78C294.133 897.501 296.165 899.223 298.169 900.973C300.681 903.175 303.137 905.348 305.536 907.577C306.778 908.735 308.02 909.892 309.233 911.049C312.649 914.267 315.894 917.456 318.999 920.645L318.971 920.532Z" fill="#F0993B" fill-opacity="0.1"/>
<path d="M136.696 756.242C137.881 754.097 149.905 732.533 171.694 705.918C178.384 697.733 186.625 688.475 195.996 678.936H195.883C165.287 669.735 134.72 670.214 114.483 672.246C92.5239 674.448 77.6212 678.851 77.4801 678.907H77.3672C86.766 688.504 94.9795 697.733 101.669 705.918C123.458 732.533 135.482 754.097 136.667 756.242H136.696Z" fill="#F0993B" fill-opacity="0.1"/>
<path d="M205.958 669.195C207.115 668.095 208.301 666.966 209.514 665.865C211.942 663.635 214.425 661.405 216.994 659.176C218.97 657.454 220.945 655.761 222.978 654.067C225.377 652.063 227.832 650.088 230.316 648.112C232.546 646.362 234.804 644.64 237.09 642.947C239.856 640.886 242.678 638.882 245.529 636.879C247.674 635.383 249.848 633.915 252.049 632.476C255.21 630.387 258.428 628.383 261.702 626.407C263.847 625.109 266.049 623.839 268.25 622.569C269.972 621.581 271.609 620.537 273.359 619.577C271.609 618.646 270 617.573 268.278 616.614C266.049 615.344 263.819 614.045 261.645 612.719C258.4 610.743 255.182 608.739 252.049 606.679C249.819 605.211 247.618 603.715 245.444 602.219C242.594 600.244 239.799 598.24 237.09 596.208C234.775 594.486 232.489 592.736 230.231 590.958C227.747 589.01 225.348 587.063 222.949 585.087C220.889 583.366 218.857 581.644 216.881 579.922C214.341 577.721 211.885 575.519 209.486 573.29C208.272 572.161 207.059 571.032 205.873 569.903C202.43 566.657 199.156 563.439 196.023 560.25V560.363C195.938 560.504 191.535 575.406 189.334 597.365C187.301 617.63 186.822 648.168 195.995 678.763V678.876C199.184 675.659 202.458 672.441 205.901 669.195H205.958Z" fill="#F0993B" fill-opacity="0.1"/>
<path d="M77.3086 678.876V678.763C77.3933 678.622 81.7963 663.72 83.9979 641.761C86.0301 621.496 86.5099 590.93 77.3368 560.363V560.25C74.1474 563.468 70.8733 566.657 67.4299 569.931C66.2445 571.032 65.0873 572.161 63.8736 573.261C61.4463 575.491 58.9343 577.721 56.394 579.979C54.4465 581.672 52.4426 583.394 50.4104 585.059C48.0113 587.063 45.5557 589.039 43.0437 591.014C40.8139 592.764 38.5842 594.486 36.2697 596.179C33.5037 598.24 30.7095 600.244 27.8305 602.248C25.6854 603.743 23.5121 605.211 21.3106 606.651C18.1494 608.739 14.9318 610.743 11.6295 612.719C9.45619 614.017 7.28288 615.315 5.08134 616.557C3.35963 617.545 1.72259 618.589 -0.0273438 619.549C1.75082 620.509 3.38786 621.581 5.10957 622.569C7.28288 623.811 9.45619 625.053 11.573 626.351C14.8753 628.355 18.1494 630.387 21.3106 632.476C23.4839 633.915 25.629 635.354 27.7459 636.822C30.653 638.854 33.5037 640.858 36.2697 642.947C38.5277 644.64 40.7575 646.334 42.959 648.055C45.4993 650.059 47.983 652.035 50.4104 654.067C52.4143 655.732 54.3618 657.398 56.3094 659.091C58.906 661.349 61.418 663.607 63.8736 665.865C65.059 666.966 66.2163 668.038 67.3735 669.139C70.8169 672.413 74.1192 675.63 77.2804 678.848L77.3086 678.876Z" fill="#F0993B" fill-opacity="0.1"/>
<path d="M158.88 566.886C180.838 564.684 195.741 560.281 195.882 560.225H195.995C186.596 550.629 178.383 541.399 171.694 533.214C149.904 506.599 137.88 485.036 136.695 482.891C135.509 485.036 123.486 506.599 101.696 533.214C95.0068 541.399 86.7652 550.657 77.3945 560.197H77.5074C108.103 569.398 138.671 568.918 158.908 566.886H158.88Z" fill="#F0993B" fill-opacity="0.1"/>
<path d="M483.774 587.458C483.915 585.003 484.225 582.632 484.395 580.204C484.592 577.467 484.846 574.701 485.129 571.907C485.58 567.165 486.116 562.48 486.709 557.823C487.104 554.887 487.528 551.924 487.979 548.96C488.657 544.444 489.419 539.985 490.265 535.582C490.802 532.76 491.366 529.937 491.987 527.115C492.975 522.486 494.019 517.942 495.177 513.398C495.797 510.914 496.475 508.43 497.152 505.975C497.801 503.632 498.338 501.205 499.043 498.891C496.729 499.568 494.33 500.132 491.987 500.753C489.475 501.459 486.963 502.108 484.479 502.757C479.992 503.886 475.476 504.931 470.875 505.918C468.024 506.539 465.174 507.104 462.323 507.64C457.948 508.459 453.545 509.221 449.085 509.898C446.065 510.35 443.045 510.801 440.054 511.196C435.481 511.789 430.852 512.297 426.195 512.749C423.316 513.031 420.437 513.285 417.587 513.511C415.216 513.68 412.873 513.991 410.474 514.132C399.974 514.753 389.305 514.95 378.523 514.837C378.834 515.402 388.035 532.28 405.309 553.363C421.425 573.035 447.985 600.469 483.096 619.408C483.012 608.626 483.181 597.929 483.802 587.458H483.774Z" fill="#F0993B" fill-opacity="0.1"/>
<path d="M404.83 725.277C409.035 725.531 413.128 725.842 417.108 726.208C419.309 726.406 421.482 726.491 423.656 726.717C466.614 731.007 496.363 739.502 499.016 740.264C498.254 737.639 489.758 707.891 485.468 664.906C483.944 649.693 483.21 634.621 483.069 619.719C447.957 638.657 421.398 666.063 405.281 685.763C387.98 706.903 378.75 723.809 378.496 724.317C379.371 724.317 380.274 724.374 381.149 724.374C384.621 724.43 388.036 724.515 391.423 724.628C395.883 724.797 400.37 724.995 404.858 725.277H404.83Z" fill="#F0993B" fill-opacity="0.1"/>
<path d="M728.37 799.446C728.737 796.511 729.189 793.575 729.64 790.64C730.346 786.124 731.08 781.636 731.926 777.205C732.463 774.411 733.027 771.589 733.62 768.794C734.608 764.166 735.652 759.593 736.809 755.077C737.43 752.594 738.108 750.11 738.785 747.655C739.434 745.312 739.971 742.885 740.676 740.57C738.334 741.276 735.878 741.812 733.507 742.461C731.08 743.139 728.652 743.788 726.197 744.409C721.624 745.566 716.996 746.639 712.31 747.626C709.544 748.219 706.778 748.784 704.04 749.292C699.553 750.138 695.037 750.9 690.492 751.606C687.585 752.057 684.678 752.481 681.771 752.848C677.086 753.469 672.372 753.977 667.63 754.457C664.864 754.711 662.098 754.965 659.36 755.162C656.933 755.36 654.562 755.642 652.107 755.783C641.607 756.404 630.938 756.602 620.156 756.489C620.467 757.081 629.696 773.931 646.942 795.015C663.058 814.687 689.617 842.121 724.729 861.059C724.644 850.278 724.814 839.581 725.435 829.109C725.576 826.654 725.886 824.283 726.056 821.856C726.281 819.118 726.507 816.38 726.79 813.614C727.241 808.844 727.777 804.131 728.37 799.474V799.446Z" fill="#F0993B" fill-opacity="0.1"/>
<path d="M499.328 740.547C500.09 743.172 508.558 772.92 512.876 815.905C514.4 831.118 515.162 846.19 515.303 861.092C550.415 842.154 576.975 814.748 593.091 795.048C610.336 773.964 619.566 757.114 619.876 756.522C605.002 756.381 589.901 755.619 574.688 754.094C531.73 749.804 501.981 741.309 499.356 740.547H499.328Z" fill="#F0993B" fill-opacity="0.1"/>
<path d="M993.205 858.209C991.031 856.967 988.858 855.697 986.741 854.427C983.439 852.423 980.193 850.391 977.003 848.302C974.83 846.863 972.685 845.423 970.568 843.955C967.661 841.923 964.81 839.891 962.044 837.831C959.786 836.137 957.557 834.444 955.383 832.722C952.843 830.718 950.359 828.714 947.932 826.71C945.928 825.045 943.98 823.38 942.061 821.687C939.464 819.429 936.924 817.171 934.469 814.913C933.311 813.84 932.182 812.768 931.053 811.695C927.582 808.421 924.251 805.175 921.062 801.93V802.043C920.977 802.184 916.574 817.086 914.373 839.044C912.34 859.309 911.861 889.876 921.034 920.443V920.556C924.195 917.366 927.469 914.177 930.884 910.96C932.098 909.802 933.311 908.673 934.553 907.516C936.952 905.315 939.38 903.141 941.892 900.94C943.896 899.19 945.928 897.468 948.017 895.747C950.387 893.771 952.787 891.852 955.242 889.904C957.5 888.126 959.786 886.376 962.129 884.626C964.839 882.594 967.633 880.619 970.455 878.643C972.629 877.119 974.858 875.623 977.116 874.155C980.249 872.095 983.41 870.119 986.685 868.144C988.886 866.817 991.088 865.519 993.346 864.249C995.039 863.289 996.676 862.216 998.398 861.285C996.62 860.325 994.983 859.253 993.261 858.265L993.205 858.209Z" fill="#F0993B" fill-opacity="0.1"/>
<path d="M839.463 913.895C817.504 916.096 802.602 920.499 802.461 920.556H802.348C811.718 930.152 819.96 939.381 826.649 947.566C848.439 974.182 860.463 995.745 861.648 997.89C862.833 995.745 874.857 974.182 896.647 947.566C903.336 939.381 911.578 930.124 920.948 920.584H920.835C890.268 911.383 859.7 911.863 839.435 913.895H839.463Z" fill="#F0993B" fill-opacity="0.1"/>
<path d="M642.2 566.886C664.159 564.684 679.061 560.281 679.203 560.225H679.315C669.917 550.629 661.703 541.399 655.014 533.214C633.224 506.599 621.201 485.036 620.015 482.891C618.83 485.036 606.806 506.599 585.016 533.214C578.327 541.399 570.085 550.657 560.715 560.197H560.828C591.395 569.398 621.991 568.918 642.228 566.886H642.2Z" fill="#F0993B" fill-opacity="0.1"/>
<path d="M504.66 632.473C506.862 633.912 509.007 635.38 511.123 636.847C514.002 638.851 516.853 640.883 519.619 642.944C521.905 644.637 524.135 646.359 526.337 648.081C528.849 650.056 531.332 652.032 533.732 654.064C535.736 655.729 537.711 657.423 539.659 659.116C542.227 661.374 544.739 663.604 547.167 665.834C548.38 666.934 549.537 668.063 550.723 669.164C554.166 672.41 557.44 675.627 560.602 678.845V678.732C560.686 678.591 565.089 663.688 567.291 641.73C569.323 621.465 569.803 590.898 560.63 560.332V560.219C557.44 563.408 554.166 566.626 550.723 569.871C549.537 571 548.352 572.101 547.138 573.23C544.711 575.46 542.227 577.69 539.687 579.891C537.711 581.613 535.707 583.334 533.675 585.028C531.276 587.003 528.849 588.979 526.365 590.927C524.135 592.676 521.877 594.426 519.563 596.148C516.825 598.208 514.002 600.184 511.152 602.188C509.007 603.684 506.805 605.152 504.604 606.619C501.442 608.708 498.253 610.712 494.951 612.687C492.777 613.986 490.576 615.284 488.374 616.526C486.653 617.514 485.044 618.558 483.266 619.518C485.044 620.477 486.681 621.55 488.403 622.538C490.604 623.78 492.749 625.05 494.894 626.348C498.197 628.352 501.442 630.356 504.604 632.473H504.66Z" fill="#F0993B" fill-opacity="0.1"/>
<path d="M619.989 756.242C621.174 754.097 633.198 732.533 654.987 705.918C661.677 697.733 669.918 688.475 679.289 678.936H679.176C648.609 669.735 618.013 670.214 597.776 672.246C575.817 674.448 560.914 678.851 560.773 678.907H560.66C570.031 688.504 578.272 697.733 584.962 705.918C606.751 732.533 618.775 754.097 619.96 756.242H619.989Z" fill="#F0993B" fill-opacity="0.1"/>
<path d="M689.279 669.169C690.436 668.068 691.594 666.967 692.779 665.867C695.206 663.609 697.718 661.407 700.287 659.149C702.234 657.456 704.238 655.762 706.242 654.069C708.641 652.065 711.097 650.089 713.609 648.114C715.839 646.364 718.068 644.642 720.383 642.949C723.149 640.888 725.971 638.856 728.85 636.852C730.995 635.356 733.169 633.889 735.37 632.449C738.531 630.361 741.749 628.357 745.023 626.381C747.168 625.083 749.37 623.813 751.571 622.543C753.293 621.555 754.93 620.51 756.68 619.551C754.93 618.619 753.321 617.547 751.6 616.587C749.37 615.317 747.14 614.019 744.967 612.692C741.721 610.717 738.503 608.713 735.37 606.652C733.141 605.185 730.939 603.689 728.766 602.193C725.915 600.217 723.121 598.213 720.383 596.181C718.068 594.459 715.782 592.71 713.524 590.931C711.04 588.984 708.613 587.036 706.242 585.033C704.182 583.311 702.178 581.617 700.202 579.868C697.662 577.638 695.178 575.436 692.779 573.207C691.565 572.078 690.38 570.977 689.194 569.848C685.751 566.602 682.477 563.385 679.316 560.195V560.308C679.231 560.449 674.828 575.352 672.627 597.31C670.594 617.575 670.115 648.114 679.288 678.709V678.821C682.477 675.604 685.779 672.386 689.223 669.112L689.279 669.169Z" fill="#F0993B" fill-opacity="0.1"/>
<path d="M834.724 553.392C851.997 532.28 861.199 515.43 861.509 514.866C846.635 514.724 831.534 513.962 816.321 512.438C773.363 508.148 743.614 499.653 740.961 498.891C741.723 501.515 750.219 531.264 754.509 574.249C756.033 589.462 756.767 604.534 756.908 619.436C792.02 600.498 818.607 573.092 834.696 553.392H834.724Z" fill="#F0993B" fill-opacity="0.1"/>
<path d="M861.508 724.289C861.226 723.753 851.996 706.875 834.723 685.763C818.606 666.063 792.047 638.657 756.935 619.719C757.02 630.5 756.851 641.197 756.23 651.668C756.089 654.096 755.778 656.467 755.609 658.866C755.383 661.66 755.157 664.454 754.875 667.276C754.423 671.99 753.887 676.647 753.294 681.304C752.899 684.239 752.476 687.203 752.024 690.166C751.347 694.682 750.585 699.17 749.738 703.601C749.202 706.367 748.637 709.161 748.044 711.955C747.057 716.612 745.984 721.241 744.827 725.785C744.206 728.212 743.557 730.668 742.879 733.095C742.23 735.466 741.666 737.921 740.988 740.264C743.274 739.587 745.702 739.05 748.016 738.401C750.528 737.696 753.04 737.018 755.581 736.397C760.04 735.268 764.584 734.224 769.157 733.236C772.036 732.615 774.886 732.051 777.737 731.515C782.112 730.696 786.515 729.934 790.946 729.257C793.966 728.805 796.986 728.354 800.006 727.958C804.579 727.366 809.179 726.858 813.836 726.406C816.715 726.124 819.594 725.87 822.473 725.644C824.844 725.475 827.187 725.164 829.558 725.023C831.392 724.91 833.312 724.938 835.174 724.854C840.961 724.571 846.634 724.402 852.222 724.346C853.887 724.346 855.525 724.205 857.19 724.205C858.629 724.205 860.097 724.289 861.536 724.317L861.508 724.289Z" fill="#F0993B" fill-opacity="0.1"/>
<path d="M982.649 740.547C983.411 743.172 991.907 772.92 996.197 815.905C997.721 831.118 998.455 846.19 998.596 861.092C1033.71 842.154 1060.27 814.748 1076.38 795.048C1093.63 773.964 1102.86 757.114 1103.17 756.522C1088.27 756.381 1073.19 755.619 1057.98 754.094C1015.02 749.804 985.274 741.309 982.621 740.547H982.649Z" fill="#F0993B" fill-opacity="0.1"/>
<path d="M1103.31 482.891C1102.12 485.036 1090.1 506.599 1068.31 533.214C1061.62 541.399 1053.38 550.657 1044.01 560.197H1044.12C1074.69 569.398 1105.28 568.918 1125.52 566.886C1147.48 564.684 1162.38 560.281 1162.52 560.225H1162.64C1153.24 550.629 1145.02 541.399 1138.34 533.214C1116.55 506.599 1104.52 485.036 1103.34 482.891H1103.31Z" fill="#F0993B" fill-opacity="0.1"/>
<path d="M1081.1 672.246C1059.14 674.448 1044.23 678.851 1044.09 678.907H1043.98C1053.38 688.504 1061.59 697.733 1068.28 705.918C1090.07 732.533 1102.1 754.097 1103.28 756.242C1104.47 754.097 1116.49 732.533 1138.28 705.918C1144.97 697.733 1153.21 688.475 1162.58 678.936H1162.47C1131.87 669.735 1101.33 670.214 1081.07 672.246H1081.1Z" fill="#F0993B" fill-opacity="0.1"/>
<path d="M1043.95 678.876V678.763C1044.04 678.622 1048.44 663.72 1050.64 641.761C1052.67 621.496 1053.15 590.93 1043.98 560.363V560.25C1040.82 563.439 1037.55 566.629 1034.13 569.874C1032.95 571.003 1031.73 572.132 1030.49 573.261C1028.09 575.491 1025.61 577.693 1023.07 579.894C1021.09 581.616 1019.06 583.337 1017.03 585.059C1014.66 587.035 1012.23 588.982 1009.74 590.958C1007.51 592.736 1005.23 594.458 1002.89 596.208C1000.15 598.24 997.354 600.244 994.503 602.219C992.33 603.715 990.157 605.211 987.927 606.679C984.794 608.739 981.576 610.743 978.302 612.719C976.129 614.045 973.927 615.315 971.698 616.585C969.976 617.573 968.367 618.618 966.617 619.549C968.367 620.509 970.004 621.581 971.754 622.541C973.956 623.783 976.129 625.053 978.274 626.351C981.576 628.327 984.794 630.359 987.955 632.447C990.157 633.887 992.33 635.354 994.447 636.85C997.326 638.854 1000.15 640.886 1002.91 642.947C1005.2 644.64 1007.46 646.39 1009.69 648.112C1012.2 650.088 1014.66 652.063 1017.05 654.067C1019.09 655.761 1021.06 657.454 1023.01 659.147C1025.58 661.377 1028.06 663.607 1030.49 665.865C1031.7 666.966 1032.89 668.094 1034.05 669.223C1037.49 672.469 1040.76 675.687 1043.92 678.876H1043.95Z" fill="#F0993B" fill-opacity="0.1"/>
<path d="M1234.92 616.588C1232.69 615.318 1230.49 614.02 1228.32 612.722C1225.04 610.746 1221.85 608.742 1218.69 606.682C1216.46 605.214 1214.29 603.746 1212.12 602.251C1209.27 600.275 1206.47 598.271 1203.71 596.211C1201.39 594.489 1199.13 592.767 1196.9 590.989C1194.42 589.013 1191.99 587.066 1189.59 585.09C1187.56 583.397 1185.56 581.675 1183.58 579.953C1181.04 577.724 1178.56 575.522 1176.13 573.293C1174.92 572.192 1173.76 571.063 1172.57 569.962C1169.13 566.716 1165.83 563.499 1162.69 560.281V560.394C1162.61 560.535 1158.21 575.438 1156.01 597.396C1153.97 617.661 1153.49 648.2 1162.67 678.794V678.907C1165.86 675.69 1169.19 672.444 1172.66 669.17C1173.82 668.098 1174.94 666.997 1176.13 665.924C1178.59 663.666 1181.1 661.437 1183.67 659.179C1185.61 657.485 1187.59 655.792 1189.59 654.127C1192.02 652.123 1194.48 650.119 1196.99 648.143C1199.19 646.421 1201.45 644.7 1203.71 643.006C1206.47 640.946 1209.29 638.914 1212.2 636.91C1214.35 635.414 1216.49 633.975 1218.69 632.507C1221.85 630.418 1225.1 628.414 1228.37 626.41C1230.52 625.112 1232.69 623.842 1234.89 622.6C1236.62 621.612 1238.25 620.54 1240.03 619.608C1238.28 618.677 1236.67 617.605 1234.95 616.645L1234.92 616.588Z" fill="#F0993B" fill-opacity="0.1"/>
<path d="M257.356 498.577C256.509 495.782 248.155 466.599 243.808 423.218C242.284 408.005 241.55 392.934 241.409 378.031C206.297 396.97 179.738 424.404 163.621 444.076C146.348 465.187 137.118 482.094 136.836 482.63C137.767 482.63 138.671 482.686 139.602 482.715C142.989 482.771 146.319 482.856 149.622 482.969C154.138 483.138 158.682 483.336 163.226 483.618C167.375 483.872 171.411 484.182 175.391 484.521C177.593 484.719 179.794 484.803 182.024 485.029C224.982 489.319 254.759 497.815 257.384 498.577H257.356Z" fill="#F0993B" fill-opacity="0.1"/>
<path d="M400.541 325.253C422.499 323.051 437.402 318.648 437.543 318.592H437.656C428.257 308.996 420.044 299.766 413.326 291.581C391.537 264.966 379.513 243.403 378.328 241.258C377.142 243.403 365.118 264.966 343.329 291.581C336.64 299.766 328.398 309.024 319.027 318.564H319.14C349.736 327.765 380.303 327.285 400.541 325.253Z" fill="#F0993B" fill-opacity="0.1"/>
<path d="M318.969 437.22V437.107C319.053 436.966 323.456 422.063 325.658 400.105C327.69 379.84 328.17 349.302 318.997 318.707V318.594C318.771 318.791 318.602 318.961 318.404 319.158C318.376 319.186 318.348 319.215 318.32 319.243C315.412 322.206 312.364 325.142 309.203 328.134C307.961 329.319 306.719 330.476 305.449 331.633C303.078 333.807 300.651 335.98 298.167 338.153C296.135 339.903 294.074 341.681 291.986 343.403C289.643 345.35 287.272 347.27 284.817 349.189C282.531 350.995 280.216 352.773 277.845 354.523C275.136 356.527 272.398 358.503 269.575 360.478C267.374 362.003 265.144 363.527 262.886 364.994C259.781 367.026 256.62 369.03 253.374 370.978C251.173 372.304 248.915 373.631 246.657 374.929C244.963 375.889 243.355 376.933 241.633 377.864C243.411 378.824 245.076 379.897 246.826 380.913C248.971 382.126 251.088 383.368 253.205 384.638C256.536 386.642 259.81 388.703 263.027 390.819C265.172 392.231 267.289 393.67 269.378 395.109C272.313 397.142 275.164 399.202 277.986 401.291C280.244 402.984 282.474 404.677 284.647 406.399C287.188 408.403 289.643 410.379 292.071 412.411C294.103 414.104 296.078 415.77 298.026 417.491C300.594 419.721 303.078 421.951 305.506 424.18C306.747 425.309 307.933 426.438 309.147 427.595C312.562 430.841 315.836 434.031 318.969 437.22Z" fill="#F0993B" fill-opacity="0.1"/>
<path d="M632.915 482.969C637.431 483.138 641.975 483.336 646.519 483.618C650.668 483.872 654.732 484.182 658.684 484.521C660.885 484.719 663.087 484.803 665.317 485.029C708.275 489.319 738.024 497.815 740.677 498.577C739.915 495.952 731.419 466.203 727.129 423.218C725.605 408.005 724.843 392.934 724.702 378.031C689.59 396.97 663.031 424.375 646.914 444.076C629.641 465.187 620.411 482.094 620.129 482.63C621.06 482.63 621.964 482.686 622.895 482.715C626.282 482.771 629.612 482.856 632.915 482.969Z" fill="#F0993B" fill-opacity="0.1"/>
<path d="M506.468 496.692C508.924 496.014 511.379 495.365 513.835 494.744C518.379 493.587 522.98 492.543 527.608 491.555C530.403 490.962 533.197 490.398 535.991 489.861C540.423 489.015 544.91 488.253 549.454 487.575C552.39 487.124 555.353 486.7 558.261 486.305C562.889 485.684 567.575 485.176 572.288 484.725C575.111 484.442 577.933 484.217 580.728 483.991C583.127 483.793 585.469 483.511 587.897 483.37C589.759 483.257 591.707 483.285 593.57 483.2C599.299 482.918 604.973 482.749 610.505 482.692C612.198 482.692 613.835 482.551 615.529 482.551C616.968 482.551 618.436 482.636 619.875 482.664C619.565 482.1 610.364 465.222 593.09 444.138C576.974 424.438 550.414 397.032 515.303 378.094C515.387 388.875 515.218 399.572 514.597 410.043C514.456 412.471 514.145 414.842 513.976 417.269C513.75 420.035 513.524 422.829 513.242 425.623C512.79 430.365 512.254 435.05 511.661 439.707C511.266 442.614 510.843 445.549 510.391 448.485C509.686 453.029 508.952 457.516 508.105 461.976C507.597 464.742 507.004 467.536 506.412 470.33C505.424 474.987 504.351 479.588 503.194 484.132C502.573 486.587 501.924 489.043 501.247 491.498C500.597 493.869 500.061 496.296 499.355 498.639C501.67 497.933 504.125 497.397 506.468 496.748V496.692Z" fill="#F0993B" fill-opacity="0.1"/>
<path d="M930.854 427.594C932.04 426.465 933.253 425.336 934.467 424.207C936.894 421.977 939.378 419.747 941.946 417.518C943.894 415.824 945.898 414.103 947.93 412.437C950.357 410.433 952.813 408.429 955.353 406.454C957.555 404.732 959.756 403.039 962.043 401.345C964.837 399.257 967.688 397.224 970.623 395.192C972.712 393.725 974.857 392.285 977.002 390.874C980.191 388.757 983.465 386.725 986.796 384.721C988.913 383.451 991.029 382.209 993.203 380.967C994.953 379.98 996.59 378.907 998.396 377.919C996.674 376.988 995.066 375.943 993.372 374.984C991.086 373.686 988.828 372.387 986.626 371.032C983.409 369.085 980.248 367.109 977.143 365.077C974.857 363.581 972.627 362.057 970.425 360.533C967.631 358.586 964.865 356.61 962.184 354.606C959.813 352.856 957.498 351.078 955.212 349.272C952.785 347.352 950.386 345.433 948.071 343.486C945.983 341.736 943.894 339.986 941.89 338.208C939.406 336.035 936.979 333.861 934.608 331.688C933.338 330.531 932.124 329.374 930.882 328.188C927.693 325.168 924.673 322.205 921.738 319.241C921.738 319.241 921.738 319.241 921.709 319.241C921.512 319.044 921.314 318.846 921.117 318.648V318.761C921.032 318.902 916.629 333.805 914.427 355.763C912.395 376.028 911.915 406.567 921.088 437.162V437.275C924.25 434.085 927.524 430.896 930.967 427.65L930.854 427.594Z" fill="#F0993B" fill-opacity="0.1"/>
<path d="M883.861 325.253C905.82 323.051 920.723 318.648 920.864 318.592H920.976C911.578 308.996 903.364 299.766 896.675 291.581C874.885 264.966 862.862 243.403 861.676 241.258C860.491 243.403 848.467 264.966 826.678 291.581C819.988 299.766 811.747 309.024 802.348 318.564H802.461C833.028 327.765 863.595 327.285 883.861 325.253Z" fill="#F0993B" fill-opacity="0.1"/>
<path d="M1103.17 482.633C1102.86 482.069 1093.66 465.19 1076.38 444.107C1060.27 424.407 1033.71 397.001 998.595 378.062C998.68 388.844 998.511 399.541 997.89 410.012C997.749 412.44 997.438 414.782 997.269 417.209C997.043 420.004 996.817 422.798 996.535 425.62C996.083 430.334 995.547 435.047 994.954 439.676C994.559 442.583 994.136 445.518 993.684 448.454C992.979 452.998 992.245 457.485 991.398 461.945C990.862 464.711 990.297 467.505 989.705 470.299C988.717 474.956 987.644 479.557 986.487 484.101C985.866 486.556 985.217 489.012 984.54 491.467C983.89 493.838 983.354 496.265 982.648 498.608C984.991 497.902 987.418 497.366 989.789 496.717C992.245 496.039 994.7 495.39 997.156 494.769C1001.7 493.612 1006.3 492.568 1010.96 491.58C1013.75 490.987 1016.55 490.423 1019.31 489.887C1023.77 489.04 1028.23 488.278 1032.78 487.6C1035.71 487.149 1038.67 486.726 1041.58 486.33C1046.21 485.709 1050.9 485.201 1055.61 484.75C1058.43 484.468 1061.25 484.242 1064.05 484.016C1066.45 483.818 1068.79 483.536 1071.22 483.395C1073.08 483.282 1075.03 483.31 1076.89 483.226C1082.62 482.943 1088.29 482.774 1093.83 482.718C1095.52 482.718 1097.16 482.577 1098.85 482.577C1100.29 482.577 1101.76 482.661 1103.2 482.689L1103.17 482.633Z" fill="#F0993B" fill-opacity="0.1"/>
<path d="M195.882 77.3624H195.995C186.596 67.7662 178.383 58.5369 171.694 50.3519C149.904 23.7083 137.852 2.14504 136.695 0C135.509 2.14504 123.486 23.7083 101.696 50.3237C95.0068 58.5087 86.7652 67.7662 77.3945 77.306H77.5074C136.582 95.059 195.346 77.5318 195.91 77.3342L195.882 77.3624Z" fill="#F0993B" fill-opacity="0.1"/>
<path d="M136.696 273.382C137.881 271.237 149.905 249.674 171.694 223.058C178.384 214.873 186.625 205.616 195.996 196.076H195.883C165.287 186.875 134.72 187.355 114.483 189.387C92.5239 191.589 77.6212 195.992 77.4801 196.048H77.3672C86.766 205.644 94.9795 214.873 101.669 223.058C123.458 249.674 135.482 271.237 136.667 273.382H136.696Z" fill="#F0993B" fill-opacity="0.1"/>
<path d="M206.016 186.223C207.145 185.15 208.302 184.078 209.459 183.005C211.915 180.719 214.455 178.49 217.052 176.203C218.971 174.538 220.918 172.845 222.922 171.208C225.35 169.176 227.833 167.172 230.374 165.168C232.547 163.446 234.777 161.753 237.035 160.087C239.829 157.999 242.68 155.967 245.587 153.935C247.704 152.467 249.849 151.027 252.022 149.588C255.211 147.499 258.457 145.467 261.788 143.463C263.905 142.193 266.05 140.923 268.251 139.681C270.001 138.693 271.638 137.621 273.416 136.661C271.695 135.73 270.086 134.686 268.392 133.726C266.106 132.428 263.877 131.129 261.647 129.775C258.429 127.827 255.268 125.851 252.163 123.819C249.877 122.323 247.647 120.799 245.417 119.275C242.623 117.328 239.857 115.352 237.176 113.348C234.805 111.57 232.491 109.792 230.204 108.014C227.777 106.095 225.406 104.175 223.063 102.256C220.947 100.506 218.886 98.7281 216.854 96.95C214.37 94.7767 211.971 92.6317 209.6 90.4584C208.33 89.273 207.088 88.1158 205.846 86.9304C202.685 83.9386 199.637 80.9751 196.73 78.0116C196.73 78.0116 196.73 78.0116 196.701 77.9833C196.504 77.7858 196.306 77.5882 196.109 77.3906V77.5035C196.024 77.6446 191.621 92.547 189.419 114.505C187.387 134.77 186.907 165.309 196.081 195.904V196.017C199.298 192.771 202.6 189.553 206.072 186.251L206.016 186.223Z" fill="#F0993B" fill-opacity="0.1"/>
<path d="M77.3095 195.985V195.873C77.3942 195.731 81.7972 180.829 83.9988 158.871C86.0309 138.606 86.5108 108.067 77.3377 77.4723V77.3594C77.1119 77.5569 76.9143 77.7545 76.7168 77.9521C76.7168 77.9521 76.7168 77.9521 76.6885 77.9803C73.7532 80.9438 70.7049 83.9074 67.5437 86.9274C66.3018 88.0846 65.0882 89.2417 63.818 90.3989C61.4471 92.6004 58.9916 94.7737 56.4796 96.9752C54.4756 98.7251 52.4434 100.475 50.3548 102.197C48.0121 104.172 45.5848 106.092 43.1293 108.039C40.8713 109.817 38.5851 111.567 36.2142 113.317C33.5046 115.349 30.7103 117.325 27.8879 119.3C25.7146 120.825 23.4848 122.32 21.2268 123.788C18.0939 125.848 14.9045 127.824 11.6586 129.8C9.45707 131.126 7.25554 132.425 4.99755 133.695C3.27584 134.654 1.66703 135.727 -0.0546875 136.658C1.72347 137.618 3.38874 138.69 5.13868 139.707C7.28376 140.92 9.40062 142.162 11.5175 143.432C14.848 145.464 18.1503 147.496 21.3397 149.613C23.4848 151.024 25.6017 152.464 27.6903 153.903C30.6257 155.935 33.5046 157.996 36.3271 160.113C38.5568 161.778 40.7301 163.443 42.9035 165.136C45.4719 167.169 47.9839 169.173 50.4395 171.233C52.387 172.87 54.3063 174.507 56.2256 176.144C58.8505 178.43 61.4189 180.716 63.9027 183.002C65.0599 184.047 66.1607 185.119 67.2897 186.163C70.7613 189.466 74.0919 192.711 77.2813 195.957L77.3095 195.985Z" fill="#F0993B" fill-opacity="0.1"/>
<path d="M499.016 257.35C498.254 254.725 489.758 224.977 485.468 181.992C483.944 166.779 483.21 151.707 483.069 136.805C447.957 155.743 421.398 183.149 405.281 202.849C388.008 223.961 378.778 240.867 378.496 241.403C379.428 241.403 380.359 241.46 381.262 241.488C384.649 241.545 387.98 241.629 391.282 241.742C395.798 241.911 400.342 242.109 404.886 242.391C409.035 242.645 413.1 242.956 417.051 243.294C419.253 243.492 421.454 243.577 423.684 243.802C466.642 248.093 496.391 256.588 499.044 257.35H499.016Z" fill="#F0993B" fill-opacity="0.1"/>
<path d="M619.988 0C618.802 2.14504 606.779 23.7083 584.989 50.3237C578.3 58.5087 570.058 67.7662 560.688 77.306H560.8C619.875 95.059 678.639 77.5318 679.203 77.3342H679.316C669.946 67.738 661.704 58.5087 655.015 50.3237C633.225 23.7083 621.173 2.14504 619.988 0Z" fill="#F0993B" fill-opacity="0.1"/>
<path d="M597.803 189.356C575.844 191.557 560.942 195.96 560.8 196.017H560.688C570.058 205.613 578.3 214.842 584.989 223.027C606.779 249.643 618.802 271.206 619.988 273.351C621.173 271.206 633.197 249.643 654.987 223.027C661.676 214.842 669.917 205.585 679.288 196.045H679.175C648.608 186.844 618.012 187.324 597.775 189.356H597.803Z" fill="#F0993B" fill-opacity="0.1"/>
<path d="M560.63 195.985V195.873C560.714 195.731 565.118 180.829 567.319 158.871C569.351 138.606 569.831 108.067 560.658 77.4723V77.3594C560.432 77.5569 560.235 77.7545 560.037 77.9521C560.037 77.9521 560.037 77.9521 560.009 77.9803C557.073 80.9438 554.053 83.9074 550.864 86.8991C549.622 88.0563 548.408 89.2417 547.138 90.3989C544.767 92.5722 542.34 94.7455 539.828 96.9187C537.796 98.6686 535.764 100.419 533.647 102.168C531.304 104.116 528.905 106.035 526.478 107.983C524.192 109.761 521.877 111.539 519.535 113.289C516.825 115.321 514.059 117.297 511.236 119.244C509.035 120.768 506.805 122.292 504.547 123.76C501.442 125.82 498.253 127.796 495.007 129.772C492.806 131.098 490.576 132.396 488.318 133.667C486.624 134.626 485.016 135.699 483.266 136.63C485.044 137.59 486.709 138.662 488.459 139.65C490.604 140.864 492.749 142.134 494.838 143.404C498.168 145.408 501.442 147.468 504.66 149.585C506.805 150.996 508.922 152.436 511.039 153.903C513.974 155.935 516.825 157.996 519.619 160.084C521.849 161.75 524.05 163.443 526.224 165.136C528.792 167.14 531.276 169.173 533.732 171.205C535.707 172.842 537.655 174.507 539.546 176.172C542.171 178.458 544.711 180.716 547.167 183.002C548.324 184.075 549.453 185.147 550.61 186.22C554.082 189.494 557.384 192.74 560.573 195.957L560.63 195.985Z" fill="#F0993B" fill-opacity="0.1"/>
<path d="M751.658 133.751C749.372 132.453 747.142 131.155 744.912 129.8C741.695 127.852 738.534 125.877 735.429 123.845C733.143 122.349 730.913 120.825 728.711 119.3C725.889 117.353 723.151 115.377 720.441 113.345C718.071 111.595 715.756 109.789 713.47 108.011C711.043 106.092 708.672 104.172 706.329 102.225C704.24 100.475 702.18 98.7251 700.148 96.9469C697.664 94.7737 695.237 92.6286 692.866 90.4272C691.596 89.27 690.382 88.0846 689.14 86.9274C685.753 83.7098 682.479 80.5205 679.374 77.3594V77.4723C679.29 77.6134 674.887 92.5157 672.685 114.474C670.653 134.739 670.173 165.278 679.346 195.873V195.985C682.564 192.74 685.894 189.494 689.366 186.192C690.495 185.119 691.624 184.075 692.753 183.002C695.237 180.716 697.749 178.458 700.374 176.2C702.293 174.535 704.24 172.87 706.216 171.205C708.644 169.173 711.156 167.169 713.696 165.165C715.869 163.443 718.099 161.75 720.357 160.084C723.151 157.996 726.002 155.964 728.937 153.932C731.054 152.464 733.171 151.024 735.344 149.585C738.534 147.496 741.779 145.464 745.11 143.46C747.227 142.19 749.372 140.92 751.573 139.678C753.323 138.69 754.96 137.618 756.739 136.658C755.017 135.727 753.408 134.683 751.715 133.723L751.658 133.751Z" fill="#F0993B" fill-opacity="0.1"/>
<path d="M861.508 241.399C861.198 240.834 851.996 223.956 834.723 202.873C818.606 183.172 792.047 155.767 756.935 136.828C757.02 147.61 756.851 158.307 756.23 168.778C756.089 171.205 755.778 173.576 755.609 175.975C755.383 178.769 755.157 181.563 754.875 184.358C754.423 189.071 753.887 193.756 753.294 198.385C752.899 201.32 752.476 204.284 752.024 207.247C751.319 211.763 750.585 216.223 749.738 220.654C749.202 223.448 748.637 226.242 748.044 229.036C747.057 233.693 745.984 238.294 744.827 242.838C744.206 245.294 743.557 247.749 742.879 250.205C742.23 252.575 741.694 255.003 740.988 257.345C743.303 256.64 745.758 256.103 748.101 255.454C750.556 254.777 753.012 254.128 755.468 253.507C760.012 252.35 764.612 251.305 769.269 250.317C772.064 249.725 774.858 249.16 777.624 248.624C782.084 247.777 786.543 247.015 791.087 246.338C794.023 245.886 796.986 245.463 799.893 245.068C804.522 244.447 809.208 243.939 813.921 243.487C816.744 243.205 819.566 242.979 822.36 242.753C824.759 242.556 827.102 242.274 829.529 242.132C831.392 242.02 833.34 242.048 835.203 241.963C840.932 241.681 846.605 241.512 852.138 241.455C853.831 241.455 855.468 241.314 857.162 241.314C858.601 241.314 860.041 241.399 861.508 241.427V241.399Z" fill="#F0993B" fill-opacity="0.1"/>
<path d="M1081.1 189.356C1059.14 191.557 1044.23 195.96 1044.09 196.017H1043.98C1053.38 205.613 1061.59 214.842 1068.28 223.027C1090.07 249.643 1102.1 271.206 1103.28 273.351C1104.47 271.206 1116.49 249.643 1138.28 223.027C1144.97 214.842 1153.21 205.585 1162.58 196.045H1162.47C1131.87 186.844 1101.33 187.324 1081.07 189.356H1081.1Z" fill="#F0993B" fill-opacity="0.1"/>
<path d="M1043.95 195.985V195.873C1044.04 195.731 1048.44 180.829 1050.64 158.871C1052.67 138.606 1053.15 108.067 1043.98 77.4723V77.3594C1043.76 77.5569 1043.59 77.7263 1043.39 77.9239C1043.36 77.9521 1043.33 77.9803 1043.3 78.0085C1040.4 80.9438 1037.38 83.9074 1034.22 86.8991C1032.97 88.0846 1031.7 89.27 1030.43 90.4554C1028.06 92.6286 1025.66 94.7737 1023.18 96.9469C1021.15 98.7251 1019.09 100.475 1017 102.225C1014.66 104.172 1012.28 106.092 1009.86 108.011C1007.57 109.817 1005.26 111.595 1002.89 113.345C1000.18 115.349 997.439 117.325 994.616 119.3C992.415 120.825 990.185 122.349 987.899 123.845C984.794 125.877 981.633 127.881 978.387 129.828C976.185 131.155 973.927 132.481 971.669 133.751C969.976 134.711 968.367 135.755 966.617 136.715C968.395 137.674 970.032 138.747 971.782 139.735C973.956 140.977 976.073 142.218 978.189 143.489C981.52 145.492 984.766 147.525 987.983 149.641C990.157 151.053 992.274 152.52 994.39 153.96C997.298 155.992 1000.18 158.024 1002.97 160.113C1005.23 161.806 1007.43 163.499 1009.63 165.193C1012.17 167.197 1014.66 169.201 1017.11 171.233C1019.09 172.898 1021.03 174.535 1022.95 176.229C1025.55 178.515 1028.09 180.744 1030.55 183.031C1031.7 184.103 1032.86 185.176 1033.99 186.276C1037.46 189.55 1040.76 192.796 1043.92 196.014L1043.95 195.985Z" fill="#F0993B" fill-opacity="0.1"/>
<path d="M1234.95 133.723C1232.69 132.453 1230.46 131.126 1228.23 129.8C1224.99 127.852 1221.83 125.848 1218.72 123.816C1216.46 122.32 1214.23 120.825 1212.03 119.272C1209.21 117.297 1206.44 115.349 1203.76 113.317C1201.42 111.567 1199.1 109.789 1196.82 108.011C1194.36 106.092 1191.99 104.172 1189.65 102.197C1187.56 100.447 1185.5 98.6968 1183.5 96.9469C1181.01 94.7737 1178.59 92.6004 1176.19 90.4272C1174.94 89.27 1173.7 88.1128 1172.49 86.9556C1169.07 83.738 1165.83 80.5487 1162.69 77.3594V77.4723C1162.61 77.6134 1158.21 92.5157 1156.01 114.474C1153.97 134.739 1153.49 165.278 1162.67 195.873V195.985C1165.88 192.74 1169.24 189.466 1172.71 186.163C1173.82 185.119 1174.92 184.075 1176.05 183.031C1178.53 180.744 1181.07 178.458 1183.69 176.172C1185.61 174.507 1187.53 172.842 1189.51 171.205C1191.96 169.173 1194.45 167.14 1197.02 165.136C1199.19 163.443 1201.39 161.75 1203.62 160.084C1206.41 157.996 1209.29 155.935 1212.2 153.903C1214.32 152.436 1216.43 150.996 1218.61 149.585C1221.8 147.468 1225.07 145.436 1228.4 143.432C1230.52 142.162 1232.66 140.892 1234.84 139.678C1236.59 138.69 1238.22 137.618 1240 136.658C1238.28 135.727 1236.67 134.683 1234.95 133.695V133.723Z" fill="#F0993B" fill-opacity="0.1"/>
<path d="M1103.31 0C1102.12 2.14504 1090.1 23.7083 1068.31 50.3237C1061.62 58.5087 1053.38 67.7662 1044.01 77.306H1044.12C1103.2 95.059 1161.93 77.5318 1162.52 77.3342H1162.64C1153.24 67.738 1145.02 58.5087 1138.34 50.3237C1116.52 23.7083 1104.49 2.14504 1103.31 0Z" fill="#F0993B" fill-opacity="0.1"/>
</g>
</g>
<defs>
<clipPath id="clip0_326_388">
<rect width="1240" height="1240" fill="white"/>
</clipPath>
</defs>
</svg>
