<svg width="182" height="26" viewBox="0 0 182 26" fill="none" xmlns="http://www.w3.org/2000/svg">
<g clip-path="url(#clip0_376_8731)">
<path d="M99.2184 16.3137C101.734 14.2467 103.801 13.1011 104 12.9766C103.751 12.8271 101.709 11.6815 99.2184 9.6394C96.7778 7.64706 93.3659 4.3348 91 -0.0234375C88.6341 4.3348 85.2222 7.64706 82.7816 9.6394C80.2663 11.7064 78.1992 12.852 78 12.9766C78.249 13.126 80.2912 14.2716 82.7816 16.3137C85.2222 18.3061 88.6341 21.6183 91 25.9766C93.3659 21.6183 96.7778 18.3061 99.2184 16.3137Z" fill="#D14D1C"/>
</g>
<g clip-path="url(#clip1_376_8731)">
<path d="M125.218 16.3137C127.734 14.2467 129.801 13.1011 130 12.9766C129.751 12.8271 127.709 11.6815 125.218 9.6394C122.778 7.64706 119.366 4.3348 117 -0.0234375C114.634 4.3348 111.222 7.64706 108.782 9.6394C106.266 11.7064 104.199 12.852 104 12.9766C104.249 13.126 106.291 14.2716 108.782 16.3137C111.222 18.3061 114.634 21.6183 117 25.9766C119.366 21.6183 122.778 18.3061 125.218 16.3137Z" fill="#D14D1C"/>
</g>
<g clip-path="url(#clip2_376_8731)">
<path d="M151.218 16.3137C153.734 14.2467 155.801 13.1011 156 12.9766C155.751 12.8271 153.709 11.6815 151.218 9.6394C148.778 7.64706 145.366 4.3348 143 -0.0234375C140.634 4.3348 137.222 7.64706 134.782 9.6394C132.266 11.7064 130.199 12.852 130 12.9766C130.249 13.126 132.291 14.2716 134.782 16.3137C137.222 18.3061 140.634 21.6183 143 25.9766C145.366 21.6183 148.778 18.3061 151.218 16.3137Z" fill="#D14D1C"/>
</g>
<g clip-path="url(#clip3_376_8731)">
<path d="M177.218 16.3137C179.734 14.2467 181.801 13.1011 182 12.9766C181.751 12.8271 179.709 11.6815 177.218 9.6394C174.778 7.64706 171.366 4.3348 169 -0.0234375C166.634 4.3348 163.222 7.64706 160.782 9.6394C158.266 11.7064 156.199 12.852 156 12.9766C156.249 13.126 158.291 14.2716 160.782 16.3137C163.222 18.3061 166.634 21.6183 169 25.9766C171.366 21.6183 174.778 18.3061 177.218 16.3137Z" fill="#D14D1C"/>
</g>
<g clip-path="url(#clip4_376_8731)">
<path d="M73.2184 16.3137C75.7337 14.2467 77.8008 13.1011 78 12.9766C77.751 12.8271 75.7088 11.6815 73.2184 9.6394C70.7778 7.64706 67.3659 4.3348 65 -0.0234375C62.6341 4.3348 59.2222 7.64706 56.7816 9.6394C54.2663 11.7064 52.1992 12.852 52 12.9766C52.249 13.126 54.2912 14.2716 56.7816 16.3137C59.2222 18.3061 62.6341 21.6183 65 25.9766C67.3659 21.6183 70.7778 18.3061 73.2184 16.3137Z" fill="#D14D1C"/>
</g>
<g clip-path="url(#clip5_376_8731)">
<path d="M47.2184 16.3137C49.7337 14.2467 51.8008 13.1011 52 12.9766C51.751 12.8271 49.7088 11.6815 47.2184 9.6394C44.7778 7.64706 41.3659 4.3348 39 -0.0234375C36.6341 4.3348 33.2222 7.64706 30.7816 9.6394C28.2663 11.7064 26.1992 12.852 26 12.9766C26.249 13.126 28.2912 14.2716 30.7816 16.3137C33.2222 18.3061 36.6341 21.6183 39 25.9766C41.3659 21.6183 44.7778 18.3061 47.2184 16.3137Z" fill="#D14D1C"/>
</g>
<g clip-path="url(#clip6_376_8731)">
<path d="M21.2184 16.3137C23.7337 14.2467 25.8008 13.1011 26 12.9766C25.751 12.8271 23.7088 11.6815 21.2184 9.6394C18.7778 7.64706 15.3659 4.3348 13 -0.0234375C10.6341 4.3348 7.22222 7.64706 4.78161 9.6394C2.26628 11.7064 0.199234 12.852 0 12.9766C0.249042 13.126 2.29119 14.2716 4.78161 16.3137C7.22222 18.3061 10.6341 21.6183 13 25.9766C15.3659 21.6183 18.7778 18.3061 21.2184 16.3137Z" fill="#D14D1C"/>
</g>
<defs>
<clipPath id="clip0_376_8731">
<rect width="26" height="26" fill="white" transform="translate(78)"/>
</clipPath>
<clipPath id="clip1_376_8731">
<rect width="26" height="26" fill="white" transform="translate(104)"/>
</clipPath>
<clipPath id="clip2_376_8731">
<rect width="26" height="26" fill="white" transform="translate(130)"/>
</clipPath>
<clipPath id="clip3_376_8731">
<rect width="26" height="26" fill="white" transform="translate(156)"/>
</clipPath>
<clipPath id="clip4_376_8731">
<rect width="26" height="26" fill="white" transform="translate(52)"/>
</clipPath>
<clipPath id="clip5_376_8731">
<rect width="26" height="26" fill="white" transform="translate(26)"/>
</clipPath>
<clipPath id="clip6_376_8731">
<rect width="26" height="26" fill="white"/>
</clipPath>
</defs>
</svg>
