<svg width="78" height="26" viewBox="0 0 78 26" fill="none" xmlns="http://www.w3.org/2000/svg">
<g clip-path="url(#clip0_360_980)">
<path d="M73.2184 16.3137C75.7337 14.2467 77.8008 13.1011 78 12.9766C77.751 12.8271 75.7088 11.6815 73.2184 9.6394C70.7778 7.64706 67.3659 4.3348 65 -0.0234375C62.6341 4.3348 59.2222 7.64706 56.7816 9.6394C54.2663 11.7064 52.1992 12.852 52 12.9766C52.249 13.126 54.2912 14.2716 56.7816 16.3137C59.2222 18.3061 62.6341 21.6183 65 25.9766C67.3659 21.6183 70.7778 18.3061 73.2184 16.3137Z" fill="#D14D1C"/>
</g>
<g clip-path="url(#clip1_360_980)">
<path d="M47.2184 16.3137C49.7337 14.2467 51.8008 13.1011 52 12.9766C51.751 12.8271 49.7088 11.6815 47.2184 9.6394C44.7778 7.64706 41.3659 4.3348 39 -0.0234375C36.6341 4.3348 33.2222 7.64706 30.7816 9.6394C28.2663 11.7064 26.1992 12.852 26 12.9766C26.249 13.126 28.2912 14.2716 30.7816 16.3137C33.2222 18.3061 36.6341 21.6183 39 25.9766C41.3659 21.6183 44.7778 18.3061 47.2184 16.3137Z" fill="#D14D1C"/>
</g>
<g clip-path="url(#clip2_360_980)">
<path d="M21.2184 16.3137C23.7337 14.2467 25.8008 13.1011 26 12.9766C25.751 12.8271 23.7088 11.6815 21.2184 9.6394C18.7778 7.64706 15.3659 4.3348 13 -0.0234375C10.6341 4.3348 7.22222 7.64706 4.78161 9.6394C2.26628 11.7064 0.199234 12.852 0 12.9766C0.249042 13.126 2.29119 14.2716 4.78161 16.3137C7.22222 18.3061 10.6341 21.6183 13 25.9766C15.3659 21.6183 18.7778 18.3061 21.2184 16.3137Z" fill="#D14D1C"/>
</g>
<defs>
<clipPath id="clip0_360_980">
<rect width="26" height="26" fill="white" transform="translate(52)"/>
</clipPath>
<clipPath id="clip1_360_980">
<rect width="26" height="26" fill="white" transform="translate(26)"/>
</clipPath>
<clipPath id="clip2_360_980">
<rect width="26" height="26" fill="white"/>
</clipPath>
</defs>
</svg>
