<?xml version="1.0" encoding="UTF-8" standalone="no"?><!DOCTYPE svg PUBLIC "-//W3C//DTD SVG 1.1//EN" "http://www.w3.org/Graphics/SVG/1.1/DTD/svg11.dtd"><svg width="100%" height="100%" viewBox="0 0 4440 1087" version="1.1" xmlns="http://www.w3.org/2000/svg" xmlns:xlink="http://www.w3.org/1999/xlink" xml:space="preserve" xmlns:serif="http://www.serif.com/" style="fill-rule:evenodd;clip-rule:evenodd;stroke-linejoin:round;stroke-miterlimit:2;"><rect id="Artboard1" x="0" y="0" width="4439.727" height="1086.968" style="fill:none;"/><path d="M343.054,366.1l0,354.778l35.089,37.44l-154.655,0l35.089,-37.44l0,-354.778l-35.089,-37.44l154.655,0l-35.089,37.44Z" style="fill:#030405;fill-rule:nonzero;"/><path d="M754.456,692.026l64.336,66.292l-132.568,0l62.384,-63.222l-282.674,-321.018l0,317.948l64.336,66.292l-134.52,0l64.336,-66.292l0,-325.315l-33.797,-38.05l111.127,0l211.191,243.061l0,-176.775l-64.336,-66.286l134.52,0l-64.336,66.286l0,297.079Z" style="fill:#030405;fill-rule:nonzero;"/><path d="M993.468,753.406c100.077,0 142.313,-98.819 142.313,-209.302c0,-115.397 -39.638,-210.535 -141.66,-210.535l-37.04,0l0,419.837l36.387,0Zm-120.865,-32.533l0,-354.771l-35.095,-37.446l159.211,0c134.513,1.233 233.284,93.301 233.284,215.449c0,124.601 -106.571,214.215 -233.937,214.215l-158.558,0l35.095,-37.446Z" style="fill:#030405;fill-rule:nonzero;"/><path d="M1374.016,366.1l0,354.778l35.089,37.44l-154.655,0l35.089,-37.44l0,-354.778l-35.089,-37.44l154.655,0l-35.089,37.44Z" style="fill:#030405;fill-rule:nonzero;"/><path d="M1601.712,397.403l-74.08,206.848l152.057,0l-77.977,-206.848Zm215.094,328.385l30.539,32.526l-151.404,0l29.886,-32.526l-44.187,-116.623l-155.308,0l-30.546,83.474l82.533,65.676l-152.71,0l64.336,-65.059l108.516,-302.603l0,-61.995l68.232,0l0,0.617l150.112,396.515Z" style="fill:#030405;fill-rule:nonzero;"/><path d="M2264.86,512.18c-10.397,0 -19.496,3.07 -29.247,9.204c-31.838,19.642 -64.329,41.743 -64.329,86.551l0,145.469l79.928,0c60.433,0 98.778,-64.449 98.778,-127.671c0,-53.401 -38.999,-113.553 -85.131,-113.553m10.397,-70.589c0,-61.989 -38.339,-103.116 -103.974,-108.023l0,244.898c11.05,-28.229 35.089,-44.807 63.03,-61.989c13.002,-7.977 40.943,-30.079 40.943,-74.886m18.197,316.721l-243.036,0l35.089,-37.44l0,-354.778l-35.089,-37.44l202.745,0c60.433,0 105.272,38.667 105.918,90.841c0,48.494 -44.84,70.589 -80.581,82.864c9.751,-1.843 18.197,-2.454 26.65,-2.454c66.281,0 129.964,62.606 129.964,125.828c0,73.043 -63.683,132.578 -141.66,132.578" style="fill:#030405;fill-rule:nonzero;"/><path d="M2568.589,366.096l0,354.778l35.089,37.44l-154.655,0l35.089,-37.44l0,-354.778l-35.089,-37.44l154.655,0l-35.089,37.44Z" style="fill:#030405;fill-rule:nonzero;"/><path d="M2976.028,642.919c0,71.2 -59.134,115.397 -139.062,115.397l-180.652,-0.617l-20.142,-129.508l108.516,110.483c19.496,7.361 48.09,13.501 83.179,13.501c49.389,0 100.077,-8.594 100.077,-52.175c0,-53.401 -73.434,-86.544 -126.72,-110.483l-81.227,-36.213c-41.589,-18.415 -86.429,-52.785 -86.429,-111.1c0,-32.526 13.648,-76.107 48.736,-96.365c23.399,-13.501 53.286,-17.188 94.229,-17.188l154.009,0l18.197,130.741l-98.126,-109.256c-19.496,-8.594 -46.139,-15.345 -74.08,-15.345c-58.488,-1.227 -112.419,11.048 -112.419,55.245c0,45.417 77.977,71.2 142.959,96.365c94.875,36.823 168.955,66.286 168.955,156.517" style="fill:#030405;fill-rule:nonzero;"/><path d="M3337.073,328.654l27.942,127.671l-115.017,-122.758l-33.79,0l0,387.304l35.089,37.44l-154.662,0l35.095,-37.44l0,-387.304l-33.797,0l-115.663,122.758l27.942,-127.671l326.861,0Z" style="fill:#030405;fill-rule:nonzero;"/><path d="M3489.728,599.952c8.446,-23.322 26.643,-42.354 62.384,-64.449c49.382,-30.689 56.536,-85.318 56.536,-114.78c0,-31.916 -13.648,-87.161 -103.321,-87.161l-15.599,0l0,266.39Zm283.326,158.361l-146.862,0l24.045,-24.555l-57.189,-149.766c-7.147,-18.408 -19.496,-41.12 -35.741,-41.12c-8.446,0 -20.142,8.594 -25.344,12.274c-25.344,19.642 -40.284,44.191 -42.235,71.2l0,94.528l35.089,37.44l-154.655,0l35.089,-37.44l0,-354.778l-35.089,-37.44l218.991,0c59.78,0 105.272,38.667 105.272,90.225c0,55.245 -55.89,77.957 -125.421,112.326c9.099,-2.454 20.795,-5.524 34.443,-5.524c37.693,0 64.989,19.642 76.032,48.488l57.182,147.313l36.394,36.83Z" style="fill:#030405;fill-rule:nonzero;"/><path d="M4053.784,734.374c53.286,0 105.272,-37.44 105.272,-116.623c0,-118.46 -122.164,-265.157 -243.036,-265.157c-53.286,0 -105.272,37.44 -105.272,116.623c0,118.46 122.171,265.157 243.036,265.157m-68.878,-408.789c126.713,0 231.333,97.592 231.333,217.896c0,120.31 -104.62,217.902 -231.333,217.902c-126.72,0 -231.346,-97.592 -231.346,-217.902c0,-120.304 104.626,-217.896 231.346,-217.896" style="fill:#030405;fill-rule:nonzero;"/><path d="M3989.522,587.786c16.715,-29.315 47.308,-45.392 48.825,-46.175l0.143,0c0,0 -0.061,-0.032 -0.075,-0.039c0.014,-0.006 0.075,-0.039 0.075,-0.039l-0.143,0c-1.516,-0.784 -32.11,-16.861 -48.825,-46.175l-0.02,0c-16.715,29.315 -47.308,45.392 -48.825,46.175l-0.143,0c0,0 0.061,0.032 0.075,0.039c-0.014,0.006 -0.075,0.039 -0.075,0.039l0.143,0c1.516,0.784 32.11,16.861 48.825,46.175l0.02,0Z" style="fill:#030405;fill-rule:nonzero;"/></svg>