<?xml version="1.0" encoding="UTF-8" standalone="no"?><!DOCTYPE svg PUBLIC "-//W3C//DTD SVG 1.1//EN" "http://www.w3.org/Graphics/SVG/1.1/DTD/svg11.dtd"><svg width="100%" height="100%" viewBox="0 0 3508 2481" version="1.1" xmlns="http://www.w3.org/2000/svg" xmlns:xlink="http://www.w3.org/1999/xlink" xml:space="preserve" xmlns:serif="http://www.serif.com/" style="fill-rule:evenodd;clip-rule:evenodd;stroke-linejoin:round;stroke-miterlimit:2;"><rect id="Page-7" serif:id="Page 7" x="0" y="0" width="3507.875" height="2480.317" style="fill:none;"/><g id="Layer-1" serif:id="Layer 1"><path d="M603.949,1125.09l0,230.146l21.5,24.287l-94.763,0l21.5,-24.287l0,-230.146l-21.5,-24.288l94.763,0l-21.5,24.288Z" style="fill:#030405;fill-rule:nonzero;"/><path d="M856.03,1336.52l39.421,43.004l-81.229,0l38.225,-41.013l-173.204,-208.246l0,206.254l39.421,43.004l-82.425,0l39.421,-43.004l0,-211.033l-20.708,-24.683l68.092,0l129.404,157.675l0,-114.675l-39.421,-43l82.425,0l-39.421,43l0,192.717Z" style="fill:#030405;fill-rule:nonzero;"/><path d="M1002.481,1376.337c61.321,0 87.2,-64.104 87.2,-135.775c0,-74.858 -24.287,-136.575 -86.8,-136.575l-22.696,0l0,272.35l22.296,0Zm-74.058,-21.104l0,-230.142l-21.504,-24.292l97.554,0c82.421,0.8 142.942,60.525 142.942,139.763c0,80.829 -65.3,138.962 -143.342,138.962l-97.154,0l21.504,-24.292Z" style="fill:#030405;fill-rule:nonzero;"/><path d="M1235.656,1125.09l0,230.146l21.5,24.287l-94.763,0l21.5,-24.287l0,-230.146l-21.5,-24.288l94.763,0l-21.5,24.288Z" style="fill:#030405;fill-rule:nonzero;"/><path d="M1375.174,1145.396l-45.392,134.183l93.171,0l-47.779,-134.183Zm131.796,213.025l18.713,21.1l-92.771,0l18.312,-21.1l-27.075,-75.654l-95.162,0l-18.717,54.15l50.571,42.604l-93.571,0l39.421,-42.204l66.492,-196.3l0,-40.217l41.808,0l0,0.4l91.979,257.221Z" style="fill:#030405;fill-rule:nonzero;"/><path d="M1781.508,1219.853c-6.371,0 -11.946,1.992 -17.921,5.971c-19.508,12.742 -39.417,27.079 -39.417,56.146l0,94.367l48.975,0c37.029,0 60.525,-41.808 60.525,-82.821c0,-34.642 -23.896,-73.662 -52.162,-73.662m6.371,-45.792c0,-40.213 -23.492,-66.892 -63.708,-70.075l0,158.867c6.771,-18.312 21.5,-29.067 38.621,-40.213c7.967,-5.175 25.088,-19.513 25.088,-48.579m11.15,205.458l-148.917,0l21.5,-24.288l0,-230.146l-21.5,-24.288l124.229,0c37.029,0 64.504,25.083 64.9,58.929c0,31.458 -27.475,45.792 -49.375,53.754c5.975,-1.196 11.15,-1.592 16.329,-1.592c40.612,0 79.633,40.612 79.633,81.625c0,47.383 -39.021,86.004 -86.8,86.004" style="fill:#030405;fill-rule:nonzero;"/><path d="M1967.614,1125.087l0,230.146l21.5,24.287l-94.763,0l21.5,-24.287l0,-230.146l-21.5,-24.288l94.763,0l-21.5,24.288Z" style="fill:#030405;fill-rule:nonzero;"/><path d="M2217.266,1304.663c0,46.188 -36.233,74.858 -85.208,74.858l-110.692,-0.4l-12.342,-84.013l66.492,71.671c11.946,4.775 29.467,8.758 50.967,8.758c30.262,0 61.321,-5.575 61.321,-33.846c0,-34.642 -44.996,-56.142 -77.646,-71.671l-49.771,-23.492c-25.483,-11.946 -52.958,-34.242 -52.958,-72.071c0,-21.1 8.363,-49.371 29.863,-62.513c14.338,-8.758 32.65,-11.15 57.737,-11.15l94.367,0l11.15,84.812l-60.125,-70.875c-11.946,-5.575 -28.271,-9.954 -45.392,-9.954c-35.837,-0.796 -68.883,7.167 -68.883,35.838c0,29.462 47.779,46.188 87.596,62.513c58.133,23.887 103.525,43 103.525,101.533" style="fill:#030405;fill-rule:nonzero;"/><path d="M2438.492,1100.799l17.121,82.821l-70.475,-79.633l-20.704,0l0,251.246l21.5,24.287l-94.767,0l21.504,-24.287l0,-251.246l-20.708,0l-70.871,79.633l17.121,-82.821l200.279,0Z" style="fill:#030405;fill-rule:nonzero;"/><path d="M2532.028,1276.791c5.175,-15.129 16.325,-27.475 38.225,-41.808c30.258,-19.908 34.642,-55.346 34.642,-74.458c0,-20.704 -8.363,-56.542 -63.308,-56.542l-9.558,0l0,172.808Zm173.604,102.729l-89.987,0l14.733,-15.929l-35.042,-97.154c-4.379,-11.942 -11.946,-26.675 -21.9,-26.675c-5.175,0 -12.342,5.575 -15.529,7.962c-15.529,12.742 -24.683,28.667 -25.879,46.188l0,61.321l21.5,24.288l-94.762,0l21.5,-24.288l0,-230.146l-21.5,-24.288l134.183,0c36.629,0 64.504,25.083 64.504,58.529c0,35.838 -34.246,50.571 -76.85,72.867c5.575,-1.592 12.742,-3.583 21.104,-3.583c23.096,0 39.821,12.742 46.588,31.454l35.037,95.562l22.3,23.892Z" style="fill:#030405;fill-rule:nonzero;"/><path d="M2877.646,1363.991c32.65,0 64.504,-24.288 64.504,-75.654c0,-76.846 -74.854,-172.008 -148.917,-172.008c-32.65,0 -64.504,24.288 -64.504,75.654c0,76.846 74.858,172.008 148.917,172.008m-42.204,-265.183c77.642,0 141.746,63.308 141.746,141.35c0,78.046 -64.104,141.354 -141.746,141.354c-77.646,0 -141.754,-63.308 -141.754,-141.354c0,-78.042 64.108,-141.35 141.754,-141.35" style="fill:#030405;fill-rule:nonzero;"/><path d="M2838.27,1268.898c10.242,-19.017 28.988,-29.446 29.917,-29.954l0.088,0c0,0 -0.037,-0.021 -0.046,-0.025c0.008,-0.004 0.046,-0.025 0.046,-0.025l-0.088,0c-0.929,-0.508 -19.675,-10.938 -29.917,-29.954l-0.012,0c-10.242,19.017 -28.988,29.446 -29.917,29.954l-0.088,0c0,0 0.038,0.021 0.046,0.025c-0.008,0.004 -0.046,0.025 -0.046,0.025l0.088,0c0.929,0.508 19.675,10.938 29.917,29.954l0.012,0Z" style="fill:#030405;fill-rule:nonzero;"/></g></svg>