<?xml version="1.0" encoding="UTF-8" standalone="no"?><!DOCTYPE svg PUBLIC "-//W3C//DTD SVG 1.1//EN" "http://www.w3.org/Graphics/SVG/1.1/DTD/svg11.dtd"><svg width="100%" height="100%" viewBox="0 0 3508 2481" version="1.1" xmlns="http://www.w3.org/2000/svg" xmlns:xlink="http://www.w3.org/1999/xlink" xml:space="preserve" xmlns:serif="http://www.serif.com/" style="fill-rule:evenodd;clip-rule:evenodd;stroke-linejoin:round;stroke-miterlimit:2;"><rect id="Page-6" serif:id="Page 6" x="0" y="0" width="3507.875" height="2480.317" style="fill:none;"/><g id="Layer-1" serif:id="Layer 1"><path d="M1219.198,888.18l0,294.654l27.529,31.1l-121.329,0l27.529,-31.1l0,-294.654l-27.529,-31.096l121.329,0l-27.529,31.096Z" style="fill:#030405;fill-rule:nonzero;"/><path d="M1541.939,1158.875l50.471,55.058l-103.996,0l48.938,-52.508l-221.758,-266.617l0,264.067l50.471,55.058l-105.525,0l50.467,-55.058l0,-270.188l-26.508,-31.604l87.175,0l165.679,201.875l0,-146.817l-50.467,-55.058l105.525,0l-50.471,55.058l0,246.733Z" style="fill:#030405;fill-rule:nonzero;"/><path d="M1729.442,1209.854c78.508,0 111.646,-82.075 111.646,-173.838c0,-95.837 -31.1,-174.854 -111.137,-174.854l-29.054,0l0,348.692l28.546,0Zm-94.821,-27.017l0,-294.658l-27.525,-31.096l124.896,0c105.525,1.021 183.013,77.487 183.013,178.933c0,103.487 -83.604,177.917 -183.525,177.917l-124.383,0l27.525,-31.096Z" style="fill:#030405;fill-rule:nonzero;"/><path d="M2027.979,888.18l0,294.654l27.529,31.1l-121.329,0l27.529,-31.1l0,-294.654l-27.529,-31.096l121.329,0l-27.529,31.096Z" style="fill:#030405;fill-rule:nonzero;"/><path d="M2206.605,914.178l-58.117,171.8l119.292,0l-61.175,-171.8Zm168.738,272.738l23.962,27.017l-118.779,0l23.45,-27.017l-34.667,-96.862l-121.838,0l-23.963,69.333l64.742,54.546l-119.8,0l50.471,-54.037l85.133,-251.325l0,-51.488l53.529,0l0,0.508l117.758,329.325Z" style="fill:#030405;fill-rule:nonzero;"/><path d="M1072.631,1416.263c-8.158,0 -15.296,2.546 -22.942,7.646c-24.979,16.312 -50.467,34.667 -50.467,71.879l0,120.821l62.7,0c47.412,0 77.492,-53.529 77.492,-106.037c0,-44.35 -30.592,-94.308 -66.783,-94.308m8.154,-58.625c0,-51.487 -30.075,-85.646 -81.562,-89.721l0,203.4c8.667,-23.446 27.525,-37.212 49.446,-51.487c10.196,-6.625 32.117,-24.979 32.117,-62.192m14.275,263.05l-190.658,0l27.529,-31.1l0,-294.654l-27.529,-31.096l159.054,0c47.408,0 82.583,32.117 83.092,75.446c0,40.275 -35.175,58.625 -63.213,68.821c7.646,-1.529 14.275,-2.038 20.904,-2.038c51.996,0 101.954,51.996 101.954,104.504c0,60.667 -49.958,110.117 -111.133,110.117" style="fill:#030405;fill-rule:nonzero;"/><path d="M1310.904,1294.933l0,294.654l27.529,31.1l-121.329,0l27.529,-31.1l0,-294.654l-27.529,-31.096l121.329,0l-27.529,31.096Z" style="fill:#030405;fill-rule:nonzero;"/><path d="M1630.536,1524.847c0,59.133 -46.388,95.838 -109.092,95.838l-141.721,-0.508l-15.804,-107.562l85.133,91.758c15.296,6.121 37.725,11.217 65.254,11.217c38.742,0 78.508,-7.137 78.508,-43.333c0,-44.35 -57.608,-71.879 -99.408,-91.758l-63.725,-30.079c-32.625,-15.292 -67.8,-43.842 -67.8,-92.271c0,-27.017 10.704,-63.213 38.229,-80.037c18.354,-11.213 41.804,-14.271 73.921,-14.271l120.821,0l14.275,108.583l-76.979,-90.742c-15.292,-7.138 -36.192,-12.746 -58.117,-12.746c-45.879,-1.021 -88.192,9.175 -88.192,45.879c0,37.725 61.175,59.138 112.154,80.037c74.425,30.588 132.542,55.058 132.542,129.996" style="fill:#030405;fill-rule:nonzero;"/><path d="M1913.773,1263.837l21.921,106.033l-90.233,-101.954l-26.508,0l0,321.675l27.529,31.096l-121.329,0l27.529,-31.096l0,-321.675l-26.508,0l-90.742,101.954l21.921,-106.033l256.421,0Z" style="fill:#030405;fill-rule:nonzero;"/><path d="M2033.53,1489.162c6.629,-19.371 20.9,-35.175 48.938,-53.529c38.746,-25.487 44.354,-70.858 44.354,-95.329c0,-26.508 -10.708,-72.388 -81.054,-72.388l-12.237,0l0,221.246Zm222.267,131.525l-115.212,0l18.862,-20.392l-44.862,-124.388c-5.604,-15.292 -15.292,-34.154 -28.037,-34.154c-6.629,0 -15.8,7.138 -19.879,10.192c-19.883,16.317 -31.608,36.708 -33.137,59.138l0,78.508l27.529,31.096l-121.329,0l27.529,-31.096l0,-294.658l-27.529,-31.096l171.796,0c46.9,0 82.588,32.117 82.588,74.937c0,45.879 -43.842,64.742 -98.392,93.292c7.138,-2.037 16.312,-4.587 27.021,-4.587c29.567,0 50.979,16.312 59.642,40.271l44.863,122.35l28.55,30.588Z" style="fill:#030405;fill-rule:nonzero;"/><path d="M2476.027,1600.804c41.804,0 82.588,-31.096 82.588,-96.858c0,-98.388 -95.842,-220.229 -190.658,-220.229c-41.804,0 -82.588,31.1 -82.588,96.862c0,98.388 95.838,220.225 190.658,220.225m-54.037,-339.517c99.408,0 181.483,81.054 181.483,180.975c0,99.917 -82.075,180.971 -181.483,180.971c-99.408,0 -181.483,-81.054 -181.483,-180.971c0,-99.921 82.075,-180.975 181.483,-180.975" style="fill:#030405;fill-rule:nonzero;"/><path d="M2425.614,1479.056c12.942,-24.033 36.55,-37.383 38.3,-38.35l0.112,0c0,0 -0.025,-0.017 -0.054,-0.033c0.029,-0.017 0.054,-0.029 0.054,-0.029l-0.112,0c-1.75,-0.967 -25.358,-14.317 -38.3,-38.354l-0.017,0c-12.942,24.037 -36.55,37.388 -38.3,38.354l-0.113,0c0,0 0.025,0.012 0.058,0.029c-0.033,0.017 -0.058,0.033 -0.058,0.033l0.113,0c1.75,0.967 25.358,14.317 38.3,38.35l0.017,0Z" style="fill:#030405;fill-rule:nonzero;"/></g></svg>